HIERARCHY
ROOT hip
{
  OFFSET -0.913958 90.5221 0.36299
  CHANNELS 6 Xposition Yposition Zposition Zrotation Xrotation Yrotation
  JOINT abdomen
  {
    OFFSET 0 7.2397 0
    CHANNELS 6 Xposition Yposition Zposition Zrotation Xrotation Yrotation
    JOINT chest
    {
      OFFSET 0 16.546 0
      CHANNELS 6 Xposition Yposition Zposition Zrotation Xrotation Yrotation
      JOINT neck
      {
        OFFSET 0 34.2149 0
        CHANNELS 6 Xposition Yposition Zposition Zrotation Xrotation Yrotation
        JOINT head
        {
          OFFSET 0 6.2923 0
          CHANNELS 6 Xposition Yposition Zposition Zrotation Xrotation Yrotation
          End Site
          {
            OFFSET 0 21.2161 0
          }
        }
      }
      JOINT lCollar
      {
        OFFSET 4.0639 26.6115 -1.1234
        CHANNELS 6 Xposition Yposition Zposition Zrotation Xrotation Yrotation
        JOINT lShldr
        {
          OFFSET 14.1772 0 0
          CHANNELS 6 Xposition Yposition Zposition Zrotation Xrotation Yrotation
          JOINT lForeArm
          {
            OFFSET 26.1234 0 0
            CHANNELS 6 Xposition Yposition Zposition Zrotation Xrotation Yrotation
            JOINT lHand
            {
              OFFSET 27.7188 0 0
              CHANNELS 6 Xposition Yposition Zposition Zrotation Xrotation Yrotation
              JOINT lThumb1
              {
                OFFSET 2.2979 -0.4685 1.8313
                CHANNELS 6 Xposition Yposition Zposition Zrotation Xrotation Yrotation
                JOINT lThumb2
                {
                  OFFSET 5.2953 0 0
                  CHANNELS 6 Xposition Yposition Zposition Zrotation Xrotation Yrotation
                  JOINT lThumb3
                  {
                    OFFSET 3.0181 0 0
                    CHANNELS 6 Xposition Yposition Zposition Zrotation Xrotation Yrotation
                    End Site
                    {
                      OFFSET 2.6294 0 0
                    }
                  }
                }
              }
              JOINT lIndex1
              {
                OFFSET 9.3793 0.2991 2.5924
                CHANNELS 6 Xposition Yposition Zposition Zrotation Xrotation Yrotation
                JOINT lIndex2
                {
                  OFFSET 4.3461 0 0
                  CHANNELS 6 Xposition Yposition Zposition Zrotation Xrotation Yrotation
                  JOINT lIndex3
                  {
                    OFFSET 2.1666 0 0
                    CHANNELS 6 Xposition Yposition Zposition Zrotation Xrotation Yrotation
                    End Site
                    {
                      OFFSET 2.2048 0 0
                    }
                  }
                }
              }
              JOINT lMid1
              {
                OFFSET 9.4769 0.8376 0.2947
                CHANNELS 6 Xposition Yposition Zposition Zrotation Xrotation Yrotation
                JOINT lMid2
                {
                  OFFSET 4.772 0 0
                  CHANNELS 6 Xposition Yposition Zposition Zrotation Xrotation Yrotation
                  JOINT lMid3
                  {
                    OFFSET 2.8722 0 0
                    CHANNELS 6 Xposition Yposition Zposition Zrotation Xrotation Yrotation
                    End Site
                    {
                      OFFSET 2.0959 0 0
                    }
                  }
                }
              }
              JOINT lRing1
              {
                OFFSET 8.6586 1.0176 -1.7016
                CHANNELS 6 Xposition Yposition Zposition Zrotation Xrotation Yrotation
                JOINT lRing2
                {
                  OFFSET 4.5461 0 0
                  CHANNELS 6 Xposition Yposition Zposition Zrotation Xrotation Yrotation
                  JOINT lRing3
                  {
                    OFFSET 2.506 0 0
                    CHANNELS 6 Xposition Yposition Zposition Zrotation Xrotation Yrotation
                    End Site
                    {
                      OFFSET 2.2023 0 0
                    }
                  }
                }
              }
              JOINT lPinky1
              {
                OFFSET 7.6901 0.6618 -3.9096
                CHANNELS 6 Xposition Yposition Zposition Zrotation Xrotation Yrotation
                JOINT lPinky2
                {
                  OFFSET 3.2119 0 0
                  CHANNELS 6 Xposition Yposition Zposition Zrotation Xrotation Yrotation
                  JOINT lPinky3
                  {
                    OFFSET 1.924 0 0
                    CHANNELS 6 Xposition Yposition Zposition Zrotation Xrotation Yrotation
                    End Site
                    {
                      OFFSET 1.7829 0 0
                    }
                  }
                }
              }
            }
          }
        }
      }
      JOINT rCollar
      {
        OFFSET -4.0677 26.6109 -1.1234
        CHANNELS 6 Xposition Yposition Zposition Zrotation Xrotation Yrotation
        JOINT rShldr
        {
          OFFSET -14.1772 0 0
          CHANNELS 6 Xposition Yposition Zposition Zrotation Xrotation Yrotation
          JOINT rForeArm
          {
            OFFSET -26.1234 0 0
            CHANNELS 6 Xposition Yposition Zposition Zrotation Xrotation Yrotation
            JOINT rHand
            {
              OFFSET -27.7188 0 0
              CHANNELS 6 Xposition Yposition Zposition Zrotation Xrotation Yrotation
              JOINT rThumb1
              {
                OFFSET -2.2979 -0.4684 1.8313
                CHANNELS 6 Xposition Yposition Zposition Zrotation Xrotation Yrotation
                JOINT rThumb2
                {
                  OFFSET -5.2953 0 0
                  CHANNELS 6 Xposition Yposition Zposition Zrotation Xrotation Yrotation
                  JOINT rThumb3
                  {
                    OFFSET -3.0181 0 0
                    CHANNELS 6 Xposition Yposition Zposition Zrotation Xrotation Yrotation
                    End Site
                    {
                      OFFSET -2.6294 0 0
                    }
                  }
                }
              }
              JOINT rIndex1
              {
                OFFSET -9.3793 0.2991 2.5924
                CHANNELS 6 Xposition Yposition Zposition Zrotation Xrotation Yrotation
                JOINT rIndex2
                {
                  OFFSET -4.3461 0 0
                  CHANNELS 6 Xposition Yposition Zposition Zrotation Xrotation Yrotation
                  JOINT rIndex3
                  {
                    OFFSET -2.1666 0 0
                    CHANNELS 6 Xposition Yposition Zposition Zrotation Xrotation Yrotation
                    End Site
                    {
                      OFFSET -2.2048 0 0
                    }
                  }
                }
              }
              JOINT rMid1
              {
                OFFSET -9.4769 0.8376 0.2947
                CHANNELS 6 Xposition Yposition Zposition Zrotation Xrotation Yrotation
                JOINT rMid2
                {
                  OFFSET -4.772 0 0
                  CHANNELS 6 Xposition Yposition Zposition Zrotation Xrotation Yrotation
                  JOINT rMid3
                  {
                    OFFSET -2.8722 0 0
                    CHANNELS 6 Xposition Yposition Zposition Zrotation Xrotation Yrotation
                    End Site
                    {
                      OFFSET -2.0959 0 0
                    }
                  }
                }
              }
              JOINT rRing1
              {
                OFFSET -8.6586 1.0176 -1.7016
                CHANNELS 6 Xposition Yposition Zposition Zrotation Xrotation Yrotation
                JOINT rRing2
                {
                  OFFSET -4.5461 0 0
                  CHANNELS 6 Xposition Yposition Zposition Zrotation Xrotation Yrotation
                  JOINT rRing3
                  {
                    OFFSET -2.506 0 0
                    CHANNELS 6 Xposition Yposition Zposition Zrotation Xrotation Yrotation
                    End Site
                    {
                      OFFSET -2.2023 0 0
                    }
                  }
                }
              }
              JOINT rPinky1
              {
                OFFSET -7.6901 0.6618 -3.9096
                CHANNELS 6 Xposition Yposition Zposition Zrotation Xrotation Yrotation
                JOINT rPinky2
                {
                  OFFSET -3.2119 0 0
                  CHANNELS 6 Xposition Yposition Zposition Zrotation Xrotation Yrotation
                  JOINT rPinky3
                  {
                    OFFSET -1.924 0 0
                    CHANNELS 6 Xposition Yposition Zposition Zrotation Xrotation Yrotation
                    End Site
                    {
                      OFFSET -1.7829 0 0
                    }
                  }
                }
              }
            }
          }
        }
      }
    }
  }
  JOINT lThigh
  {
    OFFSET 8.7379 -0.0029 0.0005
    CHANNELS 6 Xposition Yposition Zposition Zrotation Xrotation Yrotation
    JOINT lShin
    {
      OFFSET 0 -46.6676 0
      CHANNELS 6 Xposition Yposition Zposition Zrotation Xrotation Yrotation
      JOINT lFoot
      {
        OFFSET 0 -40.1476 0
        CHANNELS 6 Xposition Yposition Zposition Zrotation Xrotation Yrotation
        JOINT lToes
        {
          OFFSET 0 -8.8846 14.2294
          CHANNELS 6 Xposition Yposition Zposition Zrotation Xrotation Yrotation
          End Site
          {
            OFFSET 0 0 6.296
          }
        }
      }
    }
  }
  JOINT rThigh
  {
    OFFSET -8.7379 0.0029 -0.0005
    CHANNELS 6 Xposition Yposition Zposition Zrotation Xrotation Yrotation
    JOINT rShin
    {
      OFFSET 0 -46.6676 0
      CHANNELS 6 Xposition Yposition Zposition Zrotation Xrotation Yrotation
      JOINT rFoot
      {
        OFFSET 0 -40.1476 0
        CHANNELS 6 Xposition Yposition Zposition Zrotation Xrotation Yrotation
        JOINT rToes
        {
          OFFSET 0 -8.8846 14.2294
          CHANNELS 6 Xposition Yposition Zposition Zrotation Xrotation Yrotation
          End Site
          {
            OFFSET 0 0 6.296
          }
        }
      }
    }
  }
}
MOTION
Frames:	4
Frame Time:	0.0333333
-0.913958 90.5221 0.36299 -15.0775 -4.94564 -55.1565 -8.88178e-16 7.2397 0 5.13198 9.80565 0.577024 -3.33067e-16 16.546 0 10.383 21.4263 -0.489302 3.55271e-15 34.2149 -7.10543e-15 -3.05513 33.5648 6.65427 0 6.2923 -1.42109e-14 -8.70918 -24.3579 33.4661 4.0639 26.6115 -1.1234 -0.81346 3.60952 -20.1806 14.1772 0 0 -62.4389 -27.0175 -13.3501 26.1234 1.42109e-14 -3.55271e-15 -110.162 30.6481 -78.98 27.7188 0 0 14.7167 -44.0285 -17.0833 2.2979 -0.4685 1.8313 37.184 70.9488 -65.3921 5.2953 1.42109e-14 0 -13.655 2.43914 4.2313 3.0181 7.10543e-15 0 40.5751 -4.26208 10.4488 9.3793 0.2991 2.5924 -15.7189 8.26171 2.10858 4.3461 0 0 -27.9755 -1.11862 5.59651 2.1666 0 -7.10543e-15 -30.2284 -1.57775 5.42757 9.4769 0.8376 0.2947 -15.5574 6.19102 1.80128 4.772 1.42109e-14 3.55271e-15 -44.2331 -4.15793 10.4286 2.8722 -1.77636e-15 -7.10543e-15 -38.4624 -3.11873 10.6456 8.6586 1.0176 -1.7016 -12.8095 4.05758 0.0154998 4.5461 -1.42109e-14 7.10543e-15 -68.2419 -4.98727 7.35471 2.506 0 0 -26.184 0.226373 12.1004 7.6901 0.6618 -3.9096 -1.69591 -16.7036 -0.578552 3.2119 0 -1.42109e-14 -48.2122 -6.7538 15.0248 1.924 0 1.42109e-14 -25.7169 -1.9246 10.2066 -4.0677 26.6109 -1.1234 -13.3634 3.6995 10.1023 -14.1772 0 0 33.638 26.024 39.6414 -26.1234 0 -7.10543e-15 24.38 7.21302 130.542 -27.7188 0 -1.42109e-14 -13.1963 -14.6343 -14.1038 -2.2979 -0.4684 1.8313 -92.2025 72.3373 115.748 -5.2953 0 0 20.806 -0.164395 -7.80919 -3.0181 -2.84217e-14 3.55271e-15 7.44353 -1.87405 -23.1505 -9.3793 0.2991 2.5924 -0.48323 -1.4043 -4.46204 -4.3461 -4.44089e-16 0 11.3886 0.0664387 -2.10807 -2.1666 -6.21725e-15 0 35.2116 -1.89991 -5.61247 -9.4769 0.8376 0.2947 -5.7445 -0.492483 -10.3449 -4.772 0 2.84217e-14 99.6663 -15.9162 -13.533 -2.8722 3.55271e-15 0 64.9769 -7.76865 -13.6636 -8.6586 1.0176 -1.7016 4.03538 -11.2401 -9.54013 -4.5461 -3.55271e-15 0 113.305 -9.33455 -6.15039 -2.506 0 0 71.4335 -4.5206 -7.1353 -7.6901 0.6618 -3.9096 -3.28621 -26.781 -8.59918 -3.2119 -7.10543e-15 0 88.1865 -18.3452 -18.9249 -1.924 7.10543e-15 0 68.3114 -11.8989 -18.9734 8.7379 -0.0029 0.0005 23.473 -10.1865 25.7675 0 -46.6676 0 3.37747 36.6733 12.3266 0 -40.1476 0 -8.7723 -3.47727 6.38559 0 -8.8846 14.2294 0.0001 -1.2424e-17 -0 -8.7379 0.0029 -0.0005 -13.5051 -0.411349 -33.1173 0 -46.6676 0 -8.59927 37.9532 1.33672 0 -40.1476 -1.77636e-15 10.0816 -14.9221 -3.37018 0 -8.8846 14.2294 -7.95139e-16 2.98177e-16 -0 
-0.914123 90.5225 0.362906 -15.1089 -4.96793 -55.1611 0 7.2397 0 5.13555 9.78743 0.565471 -1.11022e-16 16.546 -1.77636e-15 10.3907 21.3888 -0.511643 7.10543e-15 34.2149 -1.42109e-14 -3.05549 33.5649 6.65442 -3.55271e-15 6.2923 0 -8.70918 -24.3579 33.4661 4.0639 26.6115 -1.1234 -0.70867 3.53122 -20.2494 14.1772 0 7.10543e-15 -62.4507 -26.9213 -13.1048 26.1234 0 0 -110.152 30.674 -79.0456 27.7188 -1.42109e-14 0 14.5927 -44.0313 -17.1645 2.2979 -0.4685 1.8313 37.184 70.9488 -65.3921 5.2953 0 0 -13.655 2.43914 4.2313 3.0181 -1.42109e-14 0 40.5751 -4.26208 10.4488 9.3793 0.2991 2.5924 -15.7189 8.26171 2.10858 4.3461 1.42109e-14 0 -27.9755 -1.11862 5.59651 2.1666 -7.10543e-15 0 -30.2284 -1.57775 5.42757 9.4769 0.8376 0.2947 -15.5574 6.19102 1.80128 4.772 1.42109e-14 3.55271e-15 -44.2331 -4.15793 10.4286 2.8722 0 7.10543e-15 -38.4624 -3.11873 10.6456 8.6586 1.0176 -1.7016 -12.8095 4.05758 0.0154998 4.5461 0 -7.10543e-15 -68.2419 -4.98727 7.35471 2.506 0 0 -26.184 0.226373 12.1004 7.6901 0.6618 -3.9096 -1.69591 -16.7036 -0.578552 3.2119 -1.42109e-14 -1.42109e-14 -48.2122 -6.7538 15.0248 1.924 3.55271e-15 -7.10543e-15 -25.7169 -1.9246 10.2066 -4.0677 26.6109 -1.1234 -13.4878 3.57157 10.2269 -14.1772 -2.84217e-14 1.42109e-14 33.7049 26.1242 39.4694 -26.1234 0 0 24.3141 7.16029 130.552 -27.7188 7.10543e-15 1.42109e-14 -13.2905 -14.7785 -14.042 -2.2979 -0.4684 1.8313 -92.2025 72.3373 115.748 -5.2953 0 0 20.806 -0.164395 -7.80919 -3.0181 0 -3.55271e-15 7.44353 -1.87405 -23.1505 -9.3793 0.2991 2.5924 -0.48323 -1.4043 -4.46204 -4.3461 4.44089e-16 0 11.3886 0.0664387 -2.10807 -2.1666 8.88178e-16 -2.84217e-14 35.2116 -1.89991 -5.61247 -9.4769 0.8376 0.2947 -5.7445 -0.492483 -10.3449 -4.772 5.32907e-15 -2.84217e-14 99.6663 -15.9162 -13.533 -2.8722 0 2.84217e-14 64.9769 -7.76865 -13.6636 -8.6586 1.0176 -1.7016 4.03538 -11.2401 -9.54013 -4.5461 0 0 113.305 -9.33455 -6.15039 -2.506 -3.55271e-15 2.84217e-14 71.4335 -4.5206 -7.1353 -7.6901 0.6618 -3.9096 -3.28621 -26.781 -8.59918 -3.2119 7.10543e-15 0 88.1865 -18.3452 -18.9249 -1.924 3.55271e-15 0 68.3114 -11.8989 -18.9734 8.7379 -0.0029 0.0005 23.4711 -10.149 25.7588 -1.77636e-15 -46.6676 0 3.3779 36.6715 12.3216 1.77636e-15 -40.1476 3.55271e-15 -8.77085 -3.47699 6.38553 8.88178e-16 -8.8846 14.2294 0.0001 1.2424e-17 -0 -8.7379 0.0029 -0.0005 -13.5082 -0.373093 -33.1162 0 -46.6676 0 -8.59882 37.9527 1.34652 -3.55271e-15 -40.1476 1.77636e-15 10.0775 -14.9227 -3.37072 0 -8.8846 14.2294 7.95139e-16 -1.98785e-16 -1.59028e-15 
-0.914288 90.5228 0.362822 -15.1404 -4.99021 -55.1657 0 7.2397 0 5.13912 9.76921 0.553919 2.22045e-16 16.546 1.77636e-15 10.3983 21.3513 -0.533973 -3.55271e-15 34.2149 0 -3.05585 33.5649 6.65457 -3.55271e-15 6.2923 1.42109e-14 -8.70918 -24.3579 33.4661 4.0639 26.6115 -1.1234 -0.604067 3.45297 -20.3182 14.1772 2.84217e-14 -7.10543e-15 -62.4635 -26.8245 -12.86 26.1234 1.42109e-14 -3.55271e-15 -110.142 30.6999 -79.1113 27.7188 0 0 14.4688 -44.034 -17.2457 2.2979 -0.4685 1.8313 37.184 70.9488 -65.3921 5.2953 0 -1.42109e-14 -13.655 2.43914 4.2313 3.0181 -7.10543e-15 2.84217e-14 40.5751 -4.26208 10.4488 9.3793 0.2991 2.5924 -15.7189 8.26171 2.10858 4.3461 -1.42109e-14 0 -27.9755 -1.11862 5.59651 2.1666 -1.42109e-14 7.10543e-15 -30.2284 -1.57775 5.42757 9.4769 0.8376 0.2947 -15.5574 6.19102 1.80128 4.772 -1.42109e-14 -1.42109e-14 -44.2331 -4.15793 10.4286 2.8722 -3.55271e-15 0 -38.4624 -3.11873 10.6456 8.6586 1.0176 -1.7016 -12.8095 4.05758 0.0154998 4.5461 -1.42109e-14 -7.10543e-15 -68.2419 -4.98727 7.35471 2.506 0 0 -26.184 0.226373 12.1004 7.6901 0.6618 -3.9096 -1.69591 -16.7036 -0.578552 3.2119 -2.84217e-14 0 -48.2122 -6.7538 15.0248 1.924 7.10543e-15 0 -25.7169 -1.9246 10.2066 -4.0677 26.6109 -1.1234 -13.6116 3.44373 10.3514 -14.1772 -2.84217e-14 -7.10543e-15 33.7724 26.2243 39.2971 -26.1234 1.42109e-14 -7.10543e-15 24.2483 7.10754 130.562 -27.7188 0 0 -13.3844 -14.9228 -13.9803 -2.2979 -0.4684 1.8313 -92.2025 72.3373 115.748 -5.2953 0 0 20.806 -0.164395 -7.80919 -3.0181 2.84217e-14 0 7.44353 -1.87405 -23.1505 -9.3793 0.2991 2.5924 -0.48323 -1.4043 -4.46204 -4.3461 3.9968e-15 0 11.3886 0.0664387 -2.10807 -2.1666 3.55271e-15 0 35.2116 -1.89991 -5.61247 -9.4769 0.8376 0.2947 -5.7445 -0.492483 -10.3449 -4.772 -7.10543e-15 0 99.6663 -15.9162 -13.533 -2.8722 3.55271e-15 0 64.9769 -7.76865 -13.6636 -8.6586 1.0176 -1.7016 4.03538 -11.2401 -9.54013 -4.5461 -3.55271e-15 0 113.305 -9.33455 -6.15039 -2.506 3.55271e-15 0 71.4335 -4.5206 -7.1353 -7.6901 0.6618 -3.9096 -3.28621 -26.781 -8.59918 -3.2119 7.10543e-15 -1.42109e-14 88.1865 -18.3452 -18.9249 -1.924 -3.55271e-15 -2.84217e-14 68.3114 -11.8989 -18.9734 8.7379 -0.0029 0.0005 23.4692 -10.1115 25.7501 3.55271e-15 -46.6676 0 3.37833 36.6697 12.3166 0 -40.1476 -3.55271e-15 -8.7694 -3.47672 6.38548 0 -8.8846 14.2294 0.0001 1.2424e-17 7.95139e-16 -8.7379 0.0029 -0.0005 -13.5113 -0.334836 -33.1151 0 -46.6676 0 -8.59836 37.9523 1.35633 0 -40.1476 1.77636e-15 10.0734 -14.9233 -3.37127 -3.55271e-15 -8.8846 14.2294 -8.27607e-33 2.98177e-16 1.59028e-15 
-0.913295 90.5232 0.36179 -15.1741 -5.01354 -55.1717 0 7.2397 3.55271e-15 5.143 9.75649 0.54216 2.22045e-16 16.546 1.77636e-15 10.4071 21.3248 -0.557451 0 34.2149 0 -3.05621 33.5649 6.65471 0 6.2923 0 -8.70918 -24.3579 33.4661 4.0639 26.6115 -1.1234 -0.505027 3.37961 -20.3847 14.1772 0 0 -62.4731 -26.7483 -12.6218 26.1234 0 0 -110.138 30.7326 -79.1656 27.7188 0 -1.42109e-14 14.35 -44.0424 -17.3212 2.2979 -0.4685 1.8313 37.184 70.9488 -65.3921 5.2953 0 -1.42109e-14 -13.655 2.43914 4.2313 3.0181 -7.10543e-15 1.42109e-14 40.5751 -4.26208 10.4488 9.3793 0.2991 2.5924 -15.7189 8.26171 2.10858 4.3461 0 7.10543e-15 -27.9755 -1.11862 5.59651 2.1666 7.10543e-15 0 -30.2284 -1.57775 5.42757 9.4769 0.8376 0.2947 -15.5574 6.19102 1.80128 4.772 -2.84217e-14 0 -44.2331 -4.15793 10.4286 2.8722 -7.10543e-15 0 -38.4624 -3.11873 10.6456 8.6586 1.0176 -1.7016 -12.8095 4.05758 0.0154998 4.5461 0 0 -68.2419 -4.98727 7.35471 2.506 0 7.10543e-15 -26.184 0.226373 12.1004 7.6901 0.6618 -3.9096 -1.69591 -16.7036 -0.578552 3.2119 -1.42109e-14 1.42109e-14 -48.2122 -6.7538 15.0248 1.924 8.88178e-15 7.10543e-15 -25.7169 -1.9246 10.2066 -4.0677 26.6109 -1.1234 -13.7277 3.32838 10.4581 -14.1772 0 -7.10543e-15 33.8167 26.3151 39.1634 -26.1234 0 0 24.1848 7.05593 130.57 -27.7188 0 1.42109e-14 -13.4804 -15.0589 -13.925 -2.2979 -0.4684 1.8313 -92.2025 72.3373 115.748 -5.2953 0 7.10543e-15 20.806 -0.164395 -7.80919 -3.0181 0 0 7.44353 -1.87405 -23.1505 -9.3793 0.2991 2.5924 -0.48323 -1.4043 -4.46204 -4.3461 -4.44089e-16 -2.84217e-14 11.3886 0.0664387 -2.10807 -2.1666 5.32907e-15 0 35.2116 -1.89991 -5.61247 -9.4769 0.8376 0.2947 -5.7445 -0.492483 -10.3449 -4.772 -8.88178e-16 -2.84217e-14 99.6663 -15.9162 -13.533 -2.8722 0 -2.84217e-14 64.9769 -7.76865 -13.6636 -8.6586 1.0176 -1.7016 4.03538 -11.2401 -9.54013 -4.5461 0 2.84217e-14 113.305 -9.33455 -6.15039 -2.506 -3.55271e-15 0 71.4335 -4.5206 -7.1353 -7.6901 0.6618 -3.9096 -3.28621 -26.781 -8.59918 -3.2119 0 1.42109e-14 88.1865 -18.3452 -18.9249 -1.924 0 0 68.3114 -11.8989 -18.9734 8.7379 -0.0029 0.0005 23.4674 -10.0717 25.7409 0 -46.6676 -7.10543e-15 3.37849 36.6666 12.3126 0 -40.1476 0 -8.76734 -3.47503 6.38558 0 -8.8846 14.2294 0.0001 1.2424e-17 -0 -8.7379 0.0029 -0.0005 -13.5143 -0.295455 -33.1139 0 -46.6676 -7.10543e-15 -8.59778 37.9518 1.36742 0 -40.1476 1.77636e-15 10.068 -14.9232 -3.37215 -3.55271e-15 -8.8846 14.2294 -1.10348e-32 1.98785e-16 3.18055e-15 
